<?xml version="1.0" standalone="no"?>
<!DOCTYPE svg PUBLIC "-//W3C//DTD SVG 20010904//EN"
 "http://www.w3.org/TR/2001/REC-SVG-20010904/DTD/svg10.dtd">
<svg version="1.0" xmlns="http://www.w3.org/2000/svg"
 width="512.000000pt" height="345.000000pt" viewBox="0 0 512.000000 345.000000"
 preserveAspectRatio="xMidYMid meet">

<g transform="translate(0.000000,345.000000) scale(0.100000,-0.100000)"
fill="#000000" stroke="none">
<path d="M1179 2754 c-268 -48 -523 -186 -715 -386 -382 -398 -472 -995 -223
-1490 50 -100 82 -149 162 -247 l61 -74 -17 -65 c-21 -80 -69 -167 -136 -247
l-50 -60 62 -8 c156 -20 349 25 459 106 l27 20 81 -37 c93 -42 227 -80 349
-97 112 -16 340 -6 451 20 331 76 613 267 801 543 l39 58 -39 77 c-52 105 -85
199 -113 324 -30 137 -33 398 -5 529 26 119 70 252 116 344 45 92 49 76 -56
212 -190 247 -487 424 -802 478 -115 20 -345 20 -452 0z m362 -613 l29 -29 0
-241 0 -241 231 0 c305 0 309 -2 308 -165 0 -104 -4 -117 -49 -148 -21 -15
-54 -17 -257 -17 l-233 0 0 -230 c0 -156 -4 -237 -12 -255 -19 -41 -57 -55
-150 -55 -160 0 -168 15 -168 318 l0 222 -225 0 c-249 0 -271 4 -300 60 -20
39 -20 171 0 210 30 58 38 60 292 60 l233 0 0 220 c0 309 6 320 173 320 96 0
99 -1 128 -29z"/>
<path d="M2557 1983 c-42 -94 -74 -203 -92 -313 -25 -146 -17 -368 18 -501 28
-107 87 -261 101 -263 13 -2 65 134 92 242 64 253 52 506 -37 759 -17 48 -37
99 -43 111 -12 23 -13 22 -39 -35z"/>
</g>
</svg>
