<?xml version="1.0" encoding="UTF-8"?>
<svg version="1.1" xmlns="http://www.w3.org/2000/svg" width="512" height="345">
<path d="M0 0 C0.74813965 0.20367187 1.4962793 0.40734375 2.26708984 0.6171875 C18.87486449 5.23501113 34.60590349 13.11604152 48 24 C48.51224121 24.40831055 49.02448242 24.81662109 49.55224609 25.23730469 C77.75827934 47.79878636 96.13519562 80.4154633 100.58984375 116.35546875 C104.56893162 155.70140152 92.78102966 191.55341895 68 222 C67.34 222.66 66.68 223.32 66 224 C66.51818771 238.14347622 77.67008765 249.9190542 87.08203125 259.25 C88.88825921 261.05767076 88.88825921 261.05767076 91 262 C91 262.99 91 263.98 91 265 C69.18689252 268.4264288 46.76666023 270.98603495 26.9375 258.625 C23.39982094 256.66798605 22.78311911 256.93816544 19 258 C16.56850297 258.91041075 14.15979084 259.84864296 11.75 260.8125 C5.91445212 263.07363871 0.09614831 264.89417648 -6 266.3125 C-6.68094727 266.47145752 -7.36189453 266.63041504 -8.06347656 266.79418945 C-37.6972998 273.37747285 -70.0789686 268.74762833 -97 255 C-98.07894531 254.46503906 -99.15789062 253.93007813 -100.26953125 253.37890625 C-112.20361723 247.24906138 -122.26800027 239.16830639 -132 230 C-132.66386719 229.40058594 -133.32773437 228.80117188 -134.01171875 228.18359375 C-140.20029598 222.37160337 -144.95035888 215.49762057 -149.85009766 208.60742188 C-151.20358358 206.71541522 -152.59231122 204.85197594 -154 203 C-154.60585937 203.88300781 -155.21171875 204.76601563 -155.8359375 205.67578125 C-164.22248242 217.75247358 -173.26618934 228.02122833 -185 237 C-186.25876953 237.99966797 -186.25876953 237.99966797 -187.54296875 239.01953125 C-214.87808847 259.98610568 -250.25992768 267.96775915 -284.14453125 263.72265625 C-295.92502238 262.05977573 -306.79086659 259.0228506 -317.73046875 254.3671875 C-320.80562003 253.08128195 -323.77786432 251.85892666 -327 251 C-329.35367738 252.6296054 -329.35367738 252.6296054 -332 255 C-347.48432414 263.75665227 -365.72414358 264.85247163 -383 262 C-381.4679561 258.48197326 -379.34289678 255.99075057 -376.8125 253.125 C-371.60314541 246.83176357 -368.17061732 240.50612995 -365 233 C-364.59523438 232.11183594 -364.19046875 231.22367188 -363.7734375 230.30859375 C-362.8188257 227.52951361 -362.49595165 225.90515138 -363 223 C-365.09125505 219.76806037 -367.52923692 216.99612351 -370.13671875 214.18359375 C-381.45252681 201.93585104 -388.56390946 185.50328742 -393.375 169.75 C-393.73307739 168.58186768 -393.73307739 168.58186768 -394.09838867 167.39013672 C-400.58381382 144.87761933 -400.23474377 119.50794892 -394 97 C-393.67257812 95.741875 -393.34515625 94.48375 -393.0078125 93.1875 C-386.86789728 72.39245868 -374.70531725 54.63811722 -360 39 C-359.4740625 38.40960938 -358.948125 37.81921875 -358.40625 37.2109375 C-337.71732024 14.93867128 -304.09801697 1.1113114 -274 0 C-272.87335938 -0.0515625 -271.74671875 -0.103125 -270.5859375 -0.15625 C-248.37536669 -0.69037194 -226.79499626 3.90355718 -207 14 C-205.93265625 14.52335937 -204.8653125 15.04671875 -203.765625 15.5859375 C-183.78762661 25.76611371 -165.23815592 42.52052973 -154 62 C-153.40574219 61.12859375 -152.81148437 60.2571875 -152.19921875 59.359375 C-146.37151975 50.93735624 -140.1040187 43.36674128 -133 36 C-132.27296875 35.20980469 -131.5459375 34.41960937 -130.796875 33.60546875 C-98.66584183 -0.37012373 -44.30066291 -12.64896654 0 0 Z M-130.66015625 48.875 C-135.18159476 54.13021137 -139.31078411 59.63264791 -143.1875 65.375 C-143.58670654 65.94581299 -143.98591309 66.51662598 -144.3972168 67.10473633 C-146.17931191 69.84997412 -147.01095426 71.62705718 -146.9140625 74.92578125 C-145.81733501 78.61434764 -144.54515771 82.2143521 -143.1875 85.8125 C-141.00167369 91.80625544 -139.14564307 97.78773923 -137.6875 104 C-137.52854248 104.66878174 -137.36958496 105.33756348 -137.20581055 106.02661133 C-131.19789366 132.72369334 -134.93033625 162.01302777 -146.27734375 186.7890625 C-147.21143412 189.64687413 -146.92583403 191.15162065 -146 194 C-141.95590252 201.63103612 -136.55215445 208.42315414 -131 215 C-130.34644531 215.80050781 -129.69289063 216.60101563 -129.01953125 217.42578125 C-110.68724965 238.99114816 -83.69710769 252.4306802 -56 257 C-54.45699219 257.27457031 -54.45699219 257.27457031 -52.8828125 257.5546875 C-27.50039543 260.46574942 -2.39410561 256.74620162 20.328125 245.0390625 C23 244 23 244 25.10546875 244.16015625 C27.32637426 245.14468137 29.1076879 246.36922751 31.0625 247.8125 C42.29262688 255.45191747 55.63047068 257.45320438 69 257 C68.55269531 256.33355469 68.10539063 255.66710937 67.64453125 254.98046875 C61.46608565 245.56130329 54.03539089 233.86784506 54.37109375 222.140625 C55.52140597 218.22527656 58.57640483 215.74500146 61.36328125 212.875 C83.23021601 189.03194225 91.45060111 155.29883936 90.16845703 123.74951172 C88.30540197 93.34121308 74.88052029 65.84010302 54 44 C53.401875 43.33871094 52.80375 42.67742187 52.1875 41.99609375 C41.79735728 30.91178201 28.81660399 23.04581914 15 17 C14.35981934 16.71785645 13.71963867 16.43571289 13.06005859 16.14501953 C-37.13686859 -5.48082089 -94.1997524 9.46992329 -130.66015625 48.875 Z " fill="#1B78E5" transform="translate(407,66)"/>
<path d="M0 0 C0.74813965 0.20367187 1.4962793 0.40734375 2.26708984 0.6171875 C18.87486449 5.23501113 34.60590349 13.11604152 48 24 C48.51224121 24.40831055 49.02448242 24.81662109 49.55224609 25.23730469 C77.75827934 47.79878636 96.13519562 80.4154633 100.58984375 116.35546875 C104.56893162 155.70140152 92.78102966 191.55341895 68 222 C67.34 222.66 66.68 223.32 66 224 C66.51818771 238.14347622 77.67008765 249.9190542 87.08203125 259.25 C88.88825921 261.05767076 88.88825921 261.05767076 91 262 C91 262.99 91 263.98 91 265 C69.18689252 268.4264288 46.76666023 270.98603495 26.9375 258.625 C23.39982094 256.66798605 22.78311911 256.93816544 19 258 C16.56850297 258.91041075 14.15979084 259.84864296 11.75 260.8125 C5.91445212 263.07363871 0.09614831 264.89417648 -6 266.3125 C-6.68094727 266.47145752 -7.36189453 266.63041504 -8.06347656 266.79418945 C-37.6972998 273.37747285 -70.0789686 268.74762833 -97 255 C-98.07894531 254.46503906 -99.15789062 253.93007813 -100.26953125 253.37890625 C-112.20361723 247.24906138 -122.26800027 239.16830639 -132 230 C-132.66386719 229.40058594 -133.32773437 228.80117188 -134.01171875 228.18359375 C-145.12749633 217.74423266 -152.8475692 204.81183351 -159 191 C-159.34160156 190.25685547 -159.68320313 189.51371094 -160.03515625 188.74804688 C-174.97653244 155.91561323 -176.40591621 119.20863163 -164.08203125 85.3203125 C-158.78530783 71.46734356 -152.75552535 58.28952139 -143 47 C-142.27039063 46.14535156 -141.54078125 45.29070312 -140.7890625 44.41015625 C-138.57506326 41.88930448 -136.30472394 39.43799029 -134 37 C-133.24203125 36.17757812 -132.4840625 35.35515625 -131.703125 34.5078125 C-99.00209456 0.20379037 -45.21349803 -12.9096042 0 0 Z M-130.66015625 48.875 C-135.18159476 54.13021137 -139.31078411 59.63264791 -143.1875 65.375 C-143.58670654 65.94581299 -143.98591309 66.51662598 -144.3972168 67.10473633 C-146.17931191 69.84997412 -147.01095426 71.62705718 -146.9140625 74.92578125 C-145.81733501 78.61434764 -144.54515771 82.2143521 -143.1875 85.8125 C-141.00167369 91.80625544 -139.14564307 97.78773923 -137.6875 104 C-137.52854248 104.66878174 -137.36958496 105.33756348 -137.20581055 106.02661133 C-131.19789366 132.72369334 -134.93033625 162.01302777 -146.27734375 186.7890625 C-147.21143412 189.64687413 -146.92583403 191.15162065 -146 194 C-141.95590252 201.63103612 -136.55215445 208.42315414 -131 215 C-130.34644531 215.80050781 -129.69289063 216.60101563 -129.01953125 217.42578125 C-110.68724965 238.99114816 -83.69710769 252.4306802 -56 257 C-54.45699219 257.27457031 -54.45699219 257.27457031 -52.8828125 257.5546875 C-27.50039543 260.46574942 -2.39410561 256.74620162 20.328125 245.0390625 C23 244 23 244 25.10546875 244.16015625 C27.32637426 245.14468137 29.1076879 246.36922751 31.0625 247.8125 C42.29262688 255.45191747 55.63047068 257.45320438 69 257 C68.55269531 256.33355469 68.10539063 255.66710937 67.64453125 254.98046875 C61.46608565 245.56130329 54.03539089 233.86784506 54.37109375 222.140625 C55.52140597 218.22527656 58.57640483 215.74500146 61.36328125 212.875 C83.23021601 189.03194225 91.45060111 155.29883936 90.16845703 123.74951172 C88.30540197 93.34121308 74.88052029 65.84010302 54 44 C53.401875 43.33871094 52.80375 42.67742187 52.1875 41.99609375 C41.79735728 30.91178201 28.81660399 23.04581914 15 17 C14.35981934 16.71785645 13.71963867 16.43571289 13.06005859 16.14501953 C-37.13686859 -5.48082089 -94.1997524 9.46992329 -130.66015625 48.875 Z " fill="#3FC299" transform="translate(407,66)"/>
<path d="M0 0 C0.81210938 -0.020625 1.62421875 -0.04125 2.4609375 -0.0625 C7.2203804 -0.09350614 10.42630723 0.10607483 14.25 3.25 C16.89701335 6.22541665 17.62257948 8.050144 17.59057617 12.01855469 C17.59034958 12.95922791 17.59012299 13.89990112 17.58988953 14.86907959 C17.57440567 15.87650208 17.55892181 16.88392456 17.54296875 17.921875 C17.53872391 18.95942932 17.53447906 19.99698364 17.53010559 21.065979 C17.51332223 24.37758408 17.47566992 27.68857907 17.4375 31 C17.42245275 33.24608496 17.40876442 35.49217946 17.39648438 37.73828125 C17.36341986 43.24239541 17.3132236 48.74615412 17.25 54.25 C18.09445175 54.23667633 18.09445175 54.23667633 18.95596313 54.2230835 C24.82844871 54.1344193 30.70074336 54.0741869 36.57373047 54.03027344 C38.76391324 54.01018893 40.95404259 53.98291583 43.14404297 53.94824219 C46.29668376 53.89958591 49.44861404 53.87699922 52.6015625 53.859375 C53.57678864 53.83872986 54.55201477 53.81808472 55.55679321 53.79681396 C61.29932199 53.79492917 64.75508053 54.29675536 69.25 58.25 C71.93640754 62.27961132 71.61743889 65.33302869 71.625 70.0625 C71.64949219 70.85720703 71.67398438 71.65191406 71.69921875 72.47070312 C71.72597013 77.86110539 70.92397393 81.04104391 67.25 85.25 C64.2738374 87.09550801 62.04967841 87.49615208 58.57324219 87.47705078 C57.19226349 87.47682419 57.19226349 87.47682419 55.78338623 87.47659302 C54.79783752 87.46627045 53.81228882 87.45594788 52.796875 87.4453125 C51.27383759 87.44106766 51.27383759 87.44106766 49.72003174 87.43673706 C46.47990084 87.42555001 43.24004724 87.40044791 40 87.375 C37.80208733 87.3649683 35.60417032 87.35584278 33.40625 87.34765625 C28.02073886 87.32561551 22.63538924 87.29215251 17.25 87.25 C17.25888245 87.81296783 17.26776489 88.37593567 17.2769165 88.95596313 C17.3655807 94.82844871 17.4258131 100.70074336 17.46972656 106.57373047 C17.48981107 108.76391324 17.51708417 110.95404259 17.55175781 113.14404297 C17.60041409 116.29668376 17.62300078 119.44861404 17.640625 122.6015625 C17.66127014 123.57678864 17.68191528 124.55201477 17.70318604 125.55679321 C17.70512278 131.45761474 17.14031631 134.73378677 13.25 139.25 C9.67086492 142.04366879 5.23524785 141.65378674 0.875 141.6875 C0.1325 141.72037109 -0.61 141.75324219 -1.375 141.78710938 C-5.46884339 141.82689054 -7.9948144 141.47260747 -11.2265625 138.84765625 C-14.48597188 135.49238189 -14.87536286 134.13861345 -14.86352539 129.61669922 C-14.86344986 128.65585419 -14.86337433 127.69500916 -14.86329651 126.70504761 C-14.85813522 125.66542877 -14.85297394 124.62580994 -14.84765625 123.5546875 C-14.8462413 122.49210724 -14.84482635 121.42952698 -14.84336853 120.33474731 C-14.83775834 116.93146991 -14.82520409 113.52825762 -14.8125 110.125 C-14.80748631 107.82161553 -14.80292318 105.51823003 -14.79882812 103.21484375 C-14.7877856 97.55987351 -14.77103752 91.90494141 -14.75 86.25 C-15.35277267 86.26332367 -15.95554535 86.27664734 -16.57658386 86.29037476 C-22.85430548 86.42318927 -29.1316277 86.51364097 -35.41040039 86.57958984 C-37.75301322 86.60975015 -40.09551325 86.65068517 -42.43774414 86.70263672 C-45.80643541 86.77548101 -49.17363323 86.80946479 -52.54296875 86.8359375 C-53.58897751 86.86690521 -54.63498627 86.89787292 -55.71269226 86.92977905 C-62.74494418 86.93302889 -62.74494418 86.93302889 -65.52853394 85.0413208 C-69.65912661 80.44525891 -69.56844295 76.06765111 -69.5 70.25 C-69.55414063 68.93515625 -69.55414063 68.93515625 -69.609375 67.59375 C-69.609375 66.7378125 -69.609375 65.881875 -69.609375 65 C-69.61420898 64.23171875 -69.61904297 63.4634375 -69.62402344 62.671875 C-68.15653776 58.60554598 -65.50554001 56.30782872 -61.75 54.25 C-58.07095211 53.47148837 -54.5319856 53.5470888 -50.78515625 53.6640625 C-49.75184677 53.67255219 -48.71853729 53.68104187 -47.65391541 53.68978882 C-44.37235693 53.72322042 -41.09330838 53.7984839 -37.8125 53.875 C-35.58011376 53.90511269 -33.34768878 53.9324862 -31.11523438 53.95703125 C-25.6593083 54.02297749 -20.20483349 54.12322252 -14.75 54.25 C-14.76665459 53.3646331 -14.76665459 53.3646331 -14.78364563 52.46138 C-14.8943366 46.31335597 -14.96970745 40.16561533 -15.0246582 34.0168457 C-15.04978928 31.72278342 -15.08389969 29.4288011 -15.12719727 27.13500977 C-15.18790832 23.83589951 -15.21622437 20.53784854 -15.23828125 17.23828125 C-15.26408768 16.21414627 -15.2898941 15.19001129 -15.31648254 14.13484192 C-15.31929905 6.97067661 -15.31929905 6.97067661 -12.28198242 3.12573242 C-11.02865112 2.19724487 -11.02865112 2.19724487 -9.75 1.25 C-7.60552692 -0.89447308 -2.96113967 0.01844947 0 0 Z " fill="#FBFCFE" transform="translate(139.75,127.75)"/>
<path d="M0 0 C1.63610733 -0.01279495 1.63610733 -0.01279495 3.30526733 -0.02584839 C4.50222229 -0.02494202 5.69917725 -0.02403564 6.93240356 -0.02310181 C8.19277435 -0.02981903 9.45314514 -0.03653625 10.75170898 -0.04345703 C14.21045381 -0.06113529 17.6690997 -0.06581319 21.12788534 -0.0670886 C24.01552664 -0.0689876 26.9031449 -0.07634519 29.79077733 -0.08343279 C36.60427399 -0.09972152 43.4177178 -0.10460133 50.23123169 -0.10317993 C57.25851169 -0.10197855 64.28548453 -0.1230782 71.3126868 -0.15466726 C77.34676046 -0.18082484 83.38073378 -0.19154744 89.41486371 -0.19026911 C93.01840389 -0.18975929 96.62167119 -0.19545309 100.22515488 -0.21662521 C104.24497191 -0.23959828 108.26410157 -0.23049001 112.28396606 -0.21841431 C113.47687256 -0.22965332 114.66977905 -0.24089233 115.89883423 -0.25247192 C123.9642613 -0.190759 123.9642613 -0.190759 127.95343018 2.17279053 C130.88441922 5.61384376 131.08996796 7.77447075 130.73757935 12.26742554 C129.01292936 16.06165549 127.58543255 17.74960602 123.73757935 19.26742554 C121.27594852 19.52190113 121.27594852 19.52190113 118.46879578 19.52812195 C117.40192535 19.53520676 116.33505493 19.54229156 115.2358551 19.54959106 C114.07054764 19.54711365 112.90524017 19.54463623 111.70462036 19.54208374 C110.47336426 19.54719467 109.24210815 19.5523056 107.97354126 19.55757141 C104.59950203 19.5690908 101.22570845 19.57154085 97.85166669 19.56900811 C95.03356588 19.56793796 92.2154877 19.57282289 89.39739174 19.57761353 C82.7483192 19.58870646 76.09930315 19.58914734 69.45022583 19.58309937 C62.59395241 19.57705876 55.73788416 19.58937313 48.88164574 19.61066943 C42.99192579 19.62829002 37.10227112 19.63428608 31.21252578 19.63103169 C27.69624403 19.62921941 24.18010864 19.63184932 20.66385078 19.64574623 C16.742463 19.66066457 12.82133619 19.6513504 8.89993286 19.63973999 C7.73664963 19.64738373 6.57336639 19.65502747 5.37483215 19.66290283 C4.30514191 19.65588852 3.23545166 19.64887421 2.13334656 19.64164734 C0.74324041 19.64189895 0.74324041 19.64189895 -0.67494869 19.64215565 C-4.7511271 19.05182392 -7.39223439 17.1376118 -10.26242065 14.26742554 C-11.37243411 10.51045691 -11.43288238 8.71062603 -10.01242065 5.01742554 C-7.21565325 0.62250533 -4.95476771 0.01749183 0 0 Z " fill="#3FC398" transform="translate(311.2624206542969,187.73257446289063)"/>
<path d="M0 0 C1.63610733 -0.01279495 1.63610733 -0.01279495 3.30526733 -0.02584839 C4.50222229 -0.02494202 5.69917725 -0.02403564 6.93240356 -0.02310181 C8.19277435 -0.02981903 9.45314514 -0.03653625 10.75170898 -0.04345703 C14.21045381 -0.06113529 17.6690997 -0.06581319 21.12788534 -0.0670886 C24.01552664 -0.0689876 26.9031449 -0.07634519 29.79077733 -0.08343279 C36.60427399 -0.09972152 43.4177178 -0.10460133 50.23123169 -0.10317993 C57.25851169 -0.10197855 64.28548453 -0.1230782 71.3126868 -0.15466726 C77.34676046 -0.18082484 83.38073378 -0.19154744 89.41486371 -0.19026911 C93.01840389 -0.18975929 96.62167119 -0.19545309 100.22515488 -0.21662521 C104.24497191 -0.23959828 108.26410157 -0.23049001 112.28396606 -0.21841431 C113.47687256 -0.22965332 114.66977905 -0.24089233 115.89883423 -0.25247192 C123.9642613 -0.190759 123.9642613 -0.190759 127.95343018 2.17279053 C130.88441922 5.61384376 131.08996796 7.77447075 130.73757935 12.26742554 C129.01292936 16.06165549 127.58543255 17.74960602 123.73757935 19.26742554 C121.27594852 19.52190113 121.27594852 19.52190113 118.46879578 19.52812195 C117.40192535 19.53520676 116.33505493 19.54229156 115.2358551 19.54959106 C114.07054764 19.54711365 112.90524017 19.54463623 111.70462036 19.54208374 C110.47336426 19.54719467 109.24210815 19.5523056 107.97354126 19.55757141 C104.59950203 19.5690908 101.22570845 19.57154085 97.85166669 19.56900811 C95.03356588 19.56793796 92.2154877 19.57282289 89.39739174 19.57761353 C82.7483192 19.58870646 76.09930315 19.58914734 69.45022583 19.58309937 C62.59395241 19.57705876 55.73788416 19.58937313 48.88164574 19.61066943 C42.99192579 19.62829002 37.10227112 19.63428608 31.21252578 19.63103169 C27.69624403 19.62921941 24.18010864 19.63184932 20.66385078 19.64574623 C16.742463 19.66066457 12.82133619 19.6513504 8.89993286 19.63973999 C7.73664963 19.64738373 6.57336639 19.65502747 5.37483215 19.66290283 C4.30514191 19.65588852 3.23545166 19.64887421 2.13334656 19.64164734 C0.74324041 19.64189895 0.74324041 19.64189895 -0.67494869 19.64215565 C-4.7511271 19.05182392 -7.39223439 17.1376118 -10.26242065 14.26742554 C-11.37243411 10.51045691 -11.43288238 8.71062603 -10.01242065 5.01742554 C-7.21565325 0.62250533 -4.95476771 0.01749183 0 0 Z " fill="#3FC399" transform="translate(311.2624206542969,146.73257446289063)"/>
<path d="M0 0 C3.02455952 3.49125713 4.45304027 7.38290825 5.9375 11.6875 C6.19619873 12.43064453 6.45489746 13.17378906 6.72143555 13.93945312 C8.51428151 19.23394266 10.02248135 24.56187778 11.3125 30 C11.47161865 30.66862061 11.6307373 31.33724121 11.79467773 32.02612305 C18.28471782 60.90447975 12.82048281 90.33183757 1 117 C-2.33488129 114.32018468 -3.52539783 110.75435269 -5 106.875 C-5.26272705 106.1955835 -5.5254541 105.51616699 -5.79614258 104.81616211 C-6.53938573 102.88058977 -7.270071 100.94062087 -8 99 C-8.31324219 98.19949219 -8.62648437 97.39898437 -8.94921875 96.57421875 C-13.61296989 83.8661138 -14.55828301 70.52021326 -14.4375 57.125 C-14.43379395 56.38231873 -14.43008789 55.63963745 -14.42626953 54.87445068 C-14.3089762 38.32587163 -12.51159677 12.51159677 0 0 Z " fill="#1B78E4" transform="translate(259,140)"/>
<path d="M0 0 C0.80603165 -0.00852997 1.61206329 -0.01705994 2.44252014 -0.02584839 C3.755672 -0.02448883 3.755672 -0.02448883 5.09535217 -0.02310181 C6.02424759 -0.02981903 6.95314301 -0.03653625 7.91018677 -0.04345703 C10.98115892 -0.06245685 14.0519128 -0.06636207 17.12294006 -0.06851196 C19.25758962 -0.07493789 21.39223829 -0.0816661 23.52688599 -0.08868408 C28.00155174 -0.10066137 32.47614026 -0.10436437 36.95082092 -0.10317993 C42.68546826 -0.10297658 48.41962093 -0.13029387 54.15415096 -0.16472435 C58.56278765 -0.18695618 62.97130452 -0.19101863 67.37999153 -0.18996048 C69.49431121 -0.19232146 71.60863395 -0.20117283 73.72289848 -0.21662521 C76.67943418 -0.23621215 79.63489304 -0.23047593 82.59144592 -0.21841431 C83.46485626 -0.22965332 84.3382666 -0.24089233 85.23814392 -0.25247192 C89.32852484 -0.21004867 91.39007235 -0.0594265 94.92788696 2.17279053 C96.97496215 4.33815519 97.8661829 5.32346258 97.99794006 8.29086304 C97.94766663 9.06687866 97.89739319 9.84289429 97.84559631 10.64242554 C97.81336975 11.41328491 97.78114319 12.18414429 97.74794006 12.97836304 C96.72413898 15.76881622 95.26288903 16.85467263 92.78623962 18.4219799 C89.18852888 20.04148829 85.48629255 19.83044392 81.60145569 19.8008728 C80.68362808 19.80948837 79.76580048 19.81810394 78.82015991 19.82698059 C75.79709893 19.84961697 72.77496662 19.84290634 69.75184631 19.83383179 C67.64486923 19.8390681 65.5378945 19.8453446 63.43092346 19.85261536 C59.01939344 19.86301506 54.60818608 19.85846366 50.19667053 19.84384155 C44.54720283 19.82664765 38.89875159 19.85015929 33.24939728 19.88533115 C28.89986957 19.9073043 24.55058516 19.90586393 20.20101929 19.89756584 C18.1182341 19.89674642 16.03543103 19.90360811 13.95269775 19.91833687 C11.03941049 19.9357825 8.12795109 19.92124022 5.21473694 19.89852905 C4.3574147 19.91022125 3.50009247 19.92191345 2.61679077 19.93395996 C-1.55361982 19.86790566 -4.27982985 19.54910365 -7.60716248 16.91157532 C-10.49467546 13.83881394 -11.17753434 12.46332764 -11.09190369 8.26742554 C-9.13708736 2.9174019 -9.13708736 2.9174019 -6.23436642 1.11226463 C-3.98348869 0.22467416 -2.40788852 0.01156636 0 0 Z " fill="#3FC299" transform="translate(311.09190368652344,230.73257446289063)"/>
</svg>
